<svg xmlns="http://www.w3.org/2000/svg" xmlns:xlink="http://www.w3.org/1999/xlink" 
width="300" zoomAndPan="magnify" viewBox="0 140 350 100" 
height="100" 
preserveAspectRatio="xMidYMid meet" version="1.0"><defs><g/></defs><g fill="#01620e" fill-opacity="1"><g transform="translate(78.113606, 219.449474)"><g><path d="M 33.210938 1.011719 L 23.535156 -52.050781 L 16.820312 -52.484375 L 1.804688 -4.113281 L 8.375 -2.019531 L 12.128906 -14.148438 C 14.078125 -14.078125 16.027344 -14.078125 17.90625 -14.078125 C 19.78125 -14.148438 21.660156 -14.148438 23.390625 -14.078125 L 26.351562 2.238281 Z M 17.761719 -21.007812 C 16.605469 -21.007812 15.449219 -21.007812 14.292969 -21.007812 L 19.203125 -36.964844 L 22.089844 -21.082031 C 20.648438 -21.082031 19.203125 -21.082031 17.761719 -21.007812 Z M 17.761719 -21.007812 "/></g></g></g><g fill="#01620e" fill-opacity="1"><g transform="translate(113.270649, 219.449474)"><g><path d="M 29.238281 -50.320312 L 22.308594 -50.320312 L 22.378906 -31.695312 C 22.378906 -28.589844 22.378906 -25.484375 22.378906 -22.453125 L 22.308594 -20.71875 L 20.863281 -23.609375 C 20.359375 -24.617188 19.855469 -25.558594 19.347656 -26.566406 C 18.914062 -27.507812 18.410156 -28.515625 17.976562 -29.457031 C 17.761719 -29.960938 17.542969 -30.394531 17.328125 -30.898438 L 16.964844 -31.695312 L 16.605469 -32.488281 L 16.242188 -33.210938 L 15.882812 -33.933594 C 15.667969 -34.4375 15.378906 -34.941406 15.160156 -35.449219 L 13.644531 -38.335938 C 12.632812 -40.285156 11.625 -42.160156 10.613281 -44.472656 L 3.972656 -43.246094 L 3.753906 -38.984375 L 3.539062 -34.652344 L 3.394531 -30.320312 L 3.25 -27.941406 C 3.175781 -24.980469 3.105469 -22.089844 3.03125 -19.203125 C 2.886719 -13.355469 2.886719 -7.582031 2.886719 -1.734375 L 9.820312 -1.734375 C 9.820312 -7.507812 9.820312 -13.285156 9.964844 -19.058594 C 10.035156 -21.875 10.105469 -24.761719 10.179688 -27.652344 L 10.324219 -29.601562 L 10.324219 -29.527344 L 10.613281 -28.878906 L 10.972656 -28.082031 C 11.191406 -27.578125 11.40625 -27.074219 11.695312 -26.496094 C 12.128906 -25.484375 12.632812 -24.472656 13.140625 -23.464844 C 13.644531 -22.453125 14.148438 -21.441406 14.65625 -20.429688 L 16.171875 -17.472656 C 18.191406 -13.5 20.140625 -9.601562 22.089844 -4.765625 L 28.804688 -5.847656 C 28.878906 -7.292969 28.949219 -8.808594 29.023438 -10.25 L 29.09375 -12.488281 L 29.167969 -14.800781 C 29.167969 -16.316406 29.238281 -17.90625 29.238281 -19.421875 L 29.3125 -22.378906 C 29.3125 -25.484375 29.3125 -28.589844 29.3125 -31.695312 Z M 29.238281 -50.320312 "/></g></g></g><g fill="#01620e" fill-opacity="1"><g transform="translate(145.540061, 219.449474)"><g><path d="M 14.511719 -42.59375 C 16.027344 -42.59375 17.542969 -42.59375 19.058594 -42.59375 L 19.058594 -49.527344 C 13.863281 -49.527344 8.445312 -49.742188 2.886719 -49.308594 L 3.394531 -42.449219 C 4.765625 -42.523438 6.207031 -42.59375 7.582031 -42.59375 L 7.148438 -7.582031 C 5.703125 -7.507812 4.257812 -7.4375 2.886719 -7.363281 L 3.394531 -0.433594 C 8.445312 -0.867188 13.644531 -0.648438 19.058594 -0.578125 L 19.058594 -7.582031 C 17.398438 -7.582031 15.738281 -7.582031 14.078125 -7.582031 Z M 14.511719 -42.59375 "/></g></g></g><g fill="#01620e" fill-opacity="1"><g transform="translate(167.630535, 219.449474)"><g><path d="M 40.140625 -0.9375 C 37.542969 -17.109375 35.519531 -33.425781 33.644531 -49.742188 L 27 -50.609375 C 25.917969 -47.9375 24.980469 -45.195312 24.113281 -42.449219 C 23.320312 -39.707031 22.523438 -36.964844 21.875 -34.21875 C 21.152344 -31.476562 20.503906 -28.734375 19.855469 -25.988281 L 19.421875 -24.039062 L 18.988281 -25.269531 L 16.820312 -32.632812 C 15.304688 -37.542969 13.933594 -42.449219 12.488281 -47.433594 L 5.703125 -46.855469 C 4.042969 -31.839844 4.332031 -17.039062 2.960938 -2.597656 L 9.820312 -1.878906 C 10.539062 -9.386719 10.828125 -16.820312 11.191406 -24.183594 C 11.191406 -25.125 11.261719 -25.988281 11.261719 -26.855469 L 12.34375 -23.246094 L 13.140625 -20.792969 L 14.292969 -17.109375 L 16.605469 -9.890625 L 23.246094 -10.105469 C 23.609375 -11.40625 23.898438 -12.777344 24.257812 -14.078125 C 24.546875 -15.449219 24.835938 -16.820312 25.195312 -18.191406 L 26.566406 -24.402344 C 27.21875 -27.144531 27.867188 -29.816406 28.589844 -32.488281 C 28.589844 -32.632812 28.660156 -32.777344 28.660156 -32.847656 C 30.03125 -21.875 31.550781 -10.828125 33.28125 0.144531 Z M 40.140625 -0.9375 "/></g></g></g><g fill="#01620e" fill-opacity="1"><g transform="translate(210.872982, 219.449474)"><g><path d="M 33.210938 1.011719 L 23.535156 -52.050781 L 16.820312 -52.484375 L 1.804688 -4.113281 L 8.375 -2.019531 L 12.128906 -14.148438 C 14.078125 -14.078125 16.027344 -14.078125 17.90625 -14.078125 C 19.78125 -14.148438 21.660156 -14.148438 23.390625 -14.078125 L 26.351562 2.238281 Z M 17.761719 -21.007812 C 16.605469 -21.007812 15.449219 -21.007812 14.292969 -21.007812 L 19.203125 -36.964844 L 22.089844 -21.082031 C 20.648438 -21.082031 19.203125 -21.082031 17.761719 -21.007812 Z M 17.761719 -21.007812 "/></g></g></g><g fill="#01620e" fill-opacity="1"><g transform="translate(246.030026, 219.449474)"><g><path d="M 12.632812 -7.941406 C 11.839844 -7.941406 11.117188 -8.011719 10.394531 -8.011719 C 10.613281 -13.863281 10.902344 -19.710938 11.261719 -25.558594 C 11.695312 -33.644531 12.199219 -41.730469 12.921875 -49.816406 L 5.992188 -50.390625 C 5.34375 -42.234375 4.765625 -34.074219 4.332031 -25.988281 C 3.972656 -20.070312 3.683594 -14.222656 3.464844 -8.300781 C 3.394531 -8.300781 3.394531 -8.300781 3.320312 -8.300781 L 2.960938 -1.445312 C 6.136719 -1.226562 9.242188 -1.15625 12.34375 -1.011719 C 15.378906 -0.867188 18.480469 -0.722656 21.371094 -0.359375 L 22.234375 -7.21875 C 18.988281 -7.652344 15.8125 -7.796875 12.632812 -7.941406 Z M 12.632812 -7.941406 "/></g></g></g><g fill="#01620e" fill-opacity="1"><g transform="translate(271.441288, 219.449474)"><g><path d="M 12.632812 -7.941406 C 11.839844 -7.941406 11.117188 -8.011719 10.394531 -8.011719 C 10.613281 -13.863281 10.902344 -19.710938 11.261719 -25.558594 C 11.695312 -33.644531 12.199219 -41.730469 12.921875 -49.816406 L 5.992188 -50.390625 C 5.34375 -42.234375 4.765625 -34.074219 4.332031 -25.988281 C 3.972656 -20.070312 3.683594 -14.222656 3.464844 -8.300781 C 3.394531 -8.300781 3.394531 -8.300781 3.320312 -8.300781 L 2.960938 -1.445312 C 6.136719 -1.226562 9.242188 -1.15625 12.34375 -1.011719 C 15.378906 -0.867188 18.480469 -0.722656 21.371094 -0.359375 L 22.234375 -7.21875 C 18.988281 -7.652344 15.8125 -7.796875 12.632812 -7.941406 Z M 12.632812 -7.941406 "/></g></g></g></svg>